<svg width="61" height="56" viewBox="0 0 61 56" fill="none" xmlns="http://www.w3.org/2000/svg">
<path d="M28.8561 6.73011L30.5058 8.179L32.1555 6.73011C35.1614 4.09014 39.0764 2.72303 43.0722 2.91798C47.0681 3.11293 50.8314 4.85466 53.566 7.77469C56.3006 10.6947 57.7921 14.564 57.7248 18.5641C57.6576 22.5641 56.037 26.3811 53.2057 29.2076L53.2043 29.2091L38.1829 44.2304L38.1824 44.2309L30.5005 51.9082L11.3392 32.7496L11.3377 32.7481L7.803 29.2076L7.80049 29.2051C4.97015 26.3782 3.35041 22.5612 3.28387 18.5615C3.21733 14.5617 4.70922 10.6929 7.44396 7.77345C10.1787 4.85395 13.9418 3.11268 17.9374 2.91797C21.9333 2.72324 25.8507 4.0906 28.8561 6.73011Z" fill="#A3B4FF" stroke="#171414" stroke-width="5"/>
</svg>
