<svg width="43" height="43" viewBox="0 0 43 43" fill="none" xmlns="http://www.w3.org/2000/svg">
<path d="M36.9531 21.5C36.9531 21.6782 36.8823 21.8491 36.7563 21.9751C36.6303 22.1011 36.4594 22.1719 36.2812 22.1719H22.1719V36.2812C22.1719 36.4594 22.1011 36.6303 21.9751 36.7563C21.8491 36.8823 21.6782 36.9531 21.5 36.9531C21.3218 36.9531 21.1509 36.8823 21.0249 36.7563C20.8989 36.6303 20.8281 36.4594 20.8281 36.2812V22.1719H6.71875C6.54056 22.1719 6.36966 22.1011 6.24366 21.9751C6.11766 21.8491 6.04688 21.6782 6.04688 21.5C6.04688 21.3218 6.11766 21.1509 6.24366 21.0249C6.36966 20.8989 6.54056 20.8281 6.71875 20.8281H20.8281V6.71875C20.8281 6.54056 20.8989 6.36966 21.0249 6.24366C21.1509 6.11766 21.3218 6.04688 21.5 6.04688C21.6782 6.04688 21.8491 6.11766 21.9751 6.24366C22.1011 6.36966 22.1719 6.54056 22.1719 6.71875V20.8281H36.2812C36.4594 20.8281 36.6303 20.8989 36.7563 21.0249C36.8823 21.1509 36.9531 21.3218 36.9531 21.5Z" fill="#FFB68C"/>
</svg>
